<svg width="22" height="27" viewBox="0 0 22 27" fill="none" xmlns="http://www.w3.org/2000/svg">
<path d="M11.26 13.6C9.97443 13.6 8.71773 13.2188 7.64881 12.5045C6.57989 11.7903 5.74677 10.7751 5.2548 9.58742C4.76283 8.3997 4.6341 7.09277 4.88491 5.83189C5.13571 4.57101 5.75478 3.41283 6.66382 2.50378C7.57286 1.59474 8.73105 0.975678 9.99193 0.724874C11.2528 0.47407 12.5597 0.602792 13.7475 1.09476C14.9352 1.58673 15.9503 2.41985 16.6646 3.48877C17.3788 4.55769 17.76 5.8144 17.76 7.09998C17.7574 8.82307 17.0717 10.4748 15.8533 11.6933C14.6349 12.9117 12.9831 13.5973 11.26 13.6ZM11.26 3.59998C10.5678 3.59998 9.89109 3.80525 9.31552 4.18984C8.73994 4.57442 8.29134 5.12105 8.02644 5.76059C7.76153 6.40013 7.69222 7.10386 7.82726 7.78279C7.96231 8.46173 8.29565 9.08537 8.78514 9.57485C9.27462 10.0643 9.89826 10.3977 10.5772 10.5327C11.2561 10.6678 11.9599 10.5985 12.5994 10.3336C13.2389 10.0687 13.7856 9.62005 14.1702 9.04447C14.5547 8.4689 14.76 7.79221 14.76 7.09998C14.76 6.64035 14.6695 6.18523 14.4936 5.76059C14.3177 5.33595 14.0599 4.95011 13.7349 4.6251C13.4099 4.3001 13.024 4.04229 12.5994 3.8664C12.1748 3.69051 11.7196 3.59998 11.26 3.59998Z" fill="white"/>
<path d="M21.76 26.45H0.76001V22C0.762655 20.2769 1.44832 18.6251 2.66674 17.4067C3.88515 16.1883 5.53691 15.5026 7.26001 15.5H15.26C16.9831 15.5026 18.6349 16.1883 19.8533 17.4067C21.0717 18.6251 21.7574 20.2769 21.76 22V26.45ZM3.76001 23.45H18.76V22C18.76 21.0717 18.3913 20.1815 17.7349 19.5251C17.0785 18.8687 16.1883 18.5 15.26 18.5H7.26001C6.33175 18.5 5.44151 18.8687 4.78514 19.5251C4.12876 20.1815 3.76001 21.0717 3.76001 22V23.45Z" fill="white"/>
</svg>
