<svg width="58" height="14" viewBox="0 0 58 14" fill="none" xmlns="http://www.w3.org/2000/svg">
<path d="M9.99999 10.47V12.81H0.23999V0.209961H9.75999V2.54996H3.13999V5.27996H8.99999V7.54996H3.13999V10.47H9.99999Z" fill="white"/>
<path d="M20.91 4.05994C21.2994 4.49138 21.5969 4.99761 21.7843 5.54777C21.9717 6.09793 22.0451 6.6805 22 7.25995V12.8099H19.21V7.69995C19.2577 7.08492 19.08 6.47354 18.71 5.97994C18.5232 5.78386 18.2956 5.63118 18.0433 5.53269C17.7911 5.4342 17.5202 5.3923 17.25 5.40995C16.9377 5.39475 16.6257 5.44568 16.3345 5.55942C16.0433 5.67316 15.7793 5.84713 15.56 6.06994C15.1078 6.60734 14.882 7.29928 14.93 7.99995V12.7899H12.12V3.11995H14.8V4.25995C15.1817 3.82572 15.657 3.4838 16.19 3.25995C16.7715 3.05977 17.3857 2.97155 18 2.99995C18.5312 2.97433 19.0621 3.05488 19.5617 3.23688C20.0614 3.41889 20.5198 3.6987 20.91 4.05994Z" fill="white"/>
<path d="M30.8 12.34C30.4998 12.5569 30.1601 12.7131 29.8 12.8C29.3843 12.9009 28.9579 12.9512 28.53 12.95C27.5566 13.0135 26.5963 12.6982 25.85 12.07C25.5197 11.7289 25.2652 11.3218 25.1032 10.8755C24.9412 10.4291 24.8754 9.95357 24.91 9.48V5.48H23.41V3.34H24.9V1H27.71V3.36H30.12V5.5H27.71V9.44C27.6859 9.78492 27.7971 10.1257 28.02 10.39C28.1374 10.5036 28.2772 10.5916 28.4304 10.6484C28.5836 10.7052 28.7469 10.7296 28.91 10.72C29.3196 10.731 29.7211 10.6042 30.05 10.36L30.8 12.34Z" fill="white"/>
<path d="M36.43 3.34003C37.0654 3.08575 37.7458 2.96327 38.43 2.98003V5.57003H37.8C37.4562 5.54991 37.1119 5.59883 36.7873 5.7139C36.4627 5.82897 36.1644 6.00786 35.91 6.24003C35.669 6.5112 35.4847 6.82785 35.3679 7.17132C35.2511 7.5148 35.2043 7.87816 35.23 8.24003V12.81H32.39V3.12003H35.07V4.40003C35.4152 3.92633 35.8864 3.55906 36.43 3.34003Z" fill="white"/>
<path d="M47.38 4.04995C47.8059 4.46691 48.135 4.97231 48.3441 5.53044C48.5532 6.08857 48.6372 6.68581 48.59 7.27996V12.81H46V11.6C45.6809 12.0904 45.2306 12.4816 44.7003 12.729C44.17 12.9765 43.581 13.0704 43 13C42.3331 13.0193 41.6703 12.8895 41.06 12.62C40.5589 12.4087 40.1262 12.0625 39.81 11.62C39.5014 11.1383 39.3542 10.5709 39.39 9.99996C39.3726 9.59059 39.4544 9.18307 39.6285 8.81217C39.8026 8.44127 40.0639 8.11801 40.39 7.86996C41.3283 7.28617 42.4281 7.01646 43.53 7.09996H45.76C45.7757 6.83826 45.7336 6.57634 45.6368 6.33269C45.5401 6.08905 45.3909 5.86963 45.2 5.68996C44.7235 5.32419 44.1292 5.14625 43.53 5.18996C43.0129 5.18745 42.4991 5.27196 42.01 5.43996C41.552 5.58074 41.1221 5.80073 40.74 6.08996L39.74 4.08996C40.3183 3.69457 40.9614 3.40351 41.64 3.22995C42.382 3.02139 43.1493 2.91706 43.92 2.91996C45.1744 2.84854 46.4096 3.25196 47.38 4.04995ZM45 10.73C45.3741 10.5014 45.6542 10.1468 45.79 9.72996V8.72996H43.86C42.71 8.72996 42.14 9.10996 42.14 9.85996C42.1326 10.027 42.1671 10.1932 42.2405 10.3435C42.3138 10.4937 42.4237 10.6231 42.56 10.72C42.903 10.946 43.31 11.0547 43.72 11.03C44.166 11.0479 44.6085 10.9442 45 10.73Z" fill="white"/>
<path d="M55.17 3.34003C55.805 3.08439 56.4857 2.96186 57.17 2.98003V5.57003H56.54C56.1961 5.54819 55.8512 5.5963 55.5264 5.71146C55.2016 5.82661 54.9034 6.00643 54.65 6.24003C54.4077 6.51072 54.2219 6.82705 54.1034 7.17047C53.9849 7.5139 53.9362 7.87753 53.96 8.24003V12.81H51.15V3.12003H53.84V4.40003C54.1747 3.9285 54.6357 3.56107 55.17 3.34003Z" fill="white"/>
</svg>
