<svg width="80" height="80" viewBox="0 0 80 80" fill="none" xmlns="http://www.w3.org/2000/svg">
<circle cx="40" cy="40" r="40" fill="#506849"/>
<g clip-path="url(#clip0_0_1)">
<path d="M46 26H34C31.8783 26 29.8434 26.8429 28.3431 28.3431C26.8429 29.8434 26 31.8783 26 34V46C26 48.1217 26.8429 50.1566 28.3431 51.6569C29.8434 53.1571 31.8783 54 34 54H46C48.1217 54 50.1566 53.1571 51.6569 51.6569C53.1571 50.1566 54 48.1217 54 46V34C54 31.8783 53.1571 29.8434 51.6569 28.3431C50.1566 26.8429 48.1217 26 46 26V26ZM44.25 34.64H43C42.7867 34.6123 42.57 34.6328 42.3657 34.6999C42.1614 34.7669 41.9747 34.8789 41.8193 35.0276C41.6639 35.1762 41.5438 35.3578 41.4678 35.559C41.3918 35.7601 41.3618 35.9757 41.38 36.19V38.06H44.14L43.69 40.93H41.38V47.93C40.3495 48.0899 39.3005 48.0899 38.27 47.93V40.93H35.75V38.06H38.27V35.87C38.2163 35.3606 38.2747 34.8457 38.4411 34.3613C38.6075 33.8769 38.878 33.4348 39.2334 33.066C39.5888 32.6972 40.0207 32.4107 40.4986 32.2266C40.9766 32.0424 41.489 31.9651 42 32C42.7436 32.0104 43.4855 32.0739 44.22 32.19L44.25 34.64Z" fill="white"/>
</g>
<defs>
<clipPath id="clip0_0_1">
<rect width="28" height="28" fill="white" transform="translate(26 26)"/>
</clipPath>
</defs>
</svg>
