<svg width="80" height="80" viewBox="0 0 80 80" fill="none" xmlns="http://www.w3.org/2000/svg">
<circle cx="40" cy="40" r="40" fill="#506849"/>
<g clip-path="url(#clip0_0_1)">
<path d="M40 35C39.0111 35 38.0444 35.2932 37.2222 35.8427C36.3999 36.3921 35.759 37.173 35.3806 38.0866C35.0022 39.0002 34.9031 40.0055 35.0961 40.9755C35.289 41.9454 35.7652 42.8363 36.4645 43.5355C37.1637 44.2348 38.0546 44.711 39.0246 44.9039C39.9945 45.0969 40.9998 44.9978 41.9134 44.6194C42.8271 44.241 43.6079 43.6001 44.1574 42.7779C44.7068 41.9556 45 40.9889 45 40C45 38.6739 44.4732 37.4021 43.5355 36.4645C42.5979 35.5268 41.3261 35 40 35Z" fill="white"/>
<path d="M46 26H34C31.8783 26 29.8434 26.8429 28.3431 28.3431C26.8429 29.8434 26 31.8783 26 34V46C26 48.1217 26.8429 50.1566 28.3431 51.6569C29.8434 53.1571 31.8783 54 34 54H46C48.1217 54 50.1566 53.1571 51.6569 51.6569C53.1571 50.1566 54 48.1217 54 46V34C54 31.8783 53.1571 29.8434 51.6569 28.3431C50.1566 26.8429 48.1217 26 46 26V26ZM40 47.7C38.4771 47.7 36.9884 47.2484 35.7221 46.4023C34.4559 45.5562 33.4689 44.3537 32.8861 42.9467C32.3033 41.5397 32.1508 39.9915 32.448 38.4978C32.7451 37.0042 33.4784 35.6321 34.5553 34.5553C35.6321 33.4784 37.0042 32.7451 38.4978 32.448C39.9915 32.1508 41.5397 32.3033 42.9467 32.8861C44.3537 33.4689 45.5562 34.4559 46.4023 35.7221C47.2484 36.9884 47.7 38.4771 47.7 40C47.7 42.0422 46.8888 44.0007 45.4447 45.4447C44.0007 46.8888 42.0422 47.7 40 47.7ZM48 33.79C47.644 33.788 47.2966 33.6805 47.0017 33.4811C46.7068 33.2817 46.4776 32.9993 46.3432 32.6696C46.2088 32.3399 46.1752 31.9778 46.2466 31.6291C46.318 31.2803 46.4912 30.9605 46.7443 30.7102C46.9975 30.4599 47.3191 30.2902 47.6687 30.2227C48.0182 30.1552 48.3799 30.1928 48.7081 30.3309C49.0362 30.469 49.3161 30.7012 49.5122 30.9983C49.7083 31.2954 49.812 31.644 49.81 32C49.81 32.2368 49.7631 32.4712 49.6719 32.6897C49.5807 32.9081 49.447 33.1064 49.2787 33.2728C49.1103 33.4393 48.9106 33.5708 48.6911 33.6595C48.4717 33.7483 48.2367 33.7926 48 33.79Z" fill="white"/>
</g>
<defs>
<clipPath id="clip0_0_1">
<rect width="28" height="28" fill="white" transform="translate(26 26)"/>
</clipPath>
</defs>
</svg>
