<svg width="52" height="14" viewBox="0 0 52 14" fill="none" xmlns="http://www.w3.org/2000/svg">
<path d="M12.21 13.31V5.74996L8.47999 12H7.16999L3.47999 5.92996V13.33H0.73999V0.709961H3.14999L7.86999 8.53996L12.51 0.709961H14.91V13.31H12.21Z" fill="#546E4D"/>
<path d="M27.16 9.26005H19.84C19.9547 9.83584 20.2881 10.3448 20.77 10.6801C21.3138 11.0417 21.9574 11.2236 22.61 11.2001C23.0818 11.222 23.5535 11.1541 24 11.0001C24.3758 10.821 24.7149 10.5734 25 10.2701L26.49 11.89C25.981 12.4308 25.3579 12.8514 24.666 13.1212C23.9741 13.3911 23.2308 13.5034 22.49 13.4501C21.4861 13.4712 20.4917 13.2518 19.59 12.81C18.7971 12.4038 18.1401 11.7747 17.7 11.0001C17.2386 10.2371 16.9964 9.3617 17 8.47005C16.9906 7.56772 17.2256 6.67966 17.68 5.90005C18.1179 5.1452 18.7589 4.52846 19.53 4.12005C20.3416 3.68649 21.25 3.46626 22.17 3.48005C23.0642 3.46581 23.9477 3.67551 24.74 4.09005C25.501 4.48921 26.1297 5.1006 26.55 5.85005C27.0027 6.65863 27.2305 7.57364 27.21 8.50005C27.21 8.50005 27.2 8.79005 27.16 9.26005ZM20.59 6.14005C20.1528 6.51878 19.8714 7.04603 19.8 7.62005H24.57C24.4981 7.04902 24.2166 6.5251 23.78 6.15005C23.3368 5.78235 22.7758 5.58704 22.2 5.60005C21.6161 5.58236 21.0452 5.77387 20.59 6.14005Z" fill="#546E4D"/>
<path d="M37.8801 4.55997C38.2749 4.98896 38.5779 5.49408 38.7705 6.04435C38.963 6.59461 39.0412 7.17843 39.0001 7.75997V13.31H36.1801V8.19998C36.2278 7.58495 36.0501 6.97357 35.6801 6.47997C35.4933 6.28389 35.2657 6.13121 35.0134 6.03272C34.7612 5.93423 34.4903 5.89233 34.2201 5.90997C33.9078 5.89477 33.5958 5.94571 33.3046 6.05945C33.0134 6.17319 32.7494 6.34716 32.5301 6.56997C32.073 7.11246 31.8468 7.81257 31.9001 8.51997V13.31H29.0901V3.61997H31.7701V4.75997C32.1518 4.32575 32.6271 3.98383 33.1601 3.75997C33.7497 3.54922 34.3745 3.45415 35.0001 3.47997C35.5277 3.46104 36.0538 3.54672 36.548 3.73208C37.0423 3.91744 37.4951 4.19881 37.8801 4.55997Z" fill="#546E4D"/>
<path d="M51.28 3.62V13.31H48.62V12.16C48.2578 12.5895 47.8031 12.9314 47.29 13.16C46.758 13.3823 46.1865 13.4945 45.61 13.49C45.0616 13.5179 44.5133 13.4349 43.9978 13.2459C43.4823 13.0569 43.0103 12.7658 42.61 12.39C42.2133 11.9521 41.9095 11.4384 41.717 10.8797C41.5245 10.3211 41.4472 9.72929 41.49 9.13999V3.62H44.3V8.67999C44.3 10.24 44.96 11.02 46.3 11.02C46.6017 11.0342 46.9029 10.9826 47.1827 10.8686C47.4625 10.7546 47.7141 10.581 47.92 10.36C48.3716 9.81496 48.5939 9.11579 48.54 8.40999V3.62H51.28Z" fill="#546E4D"/>
</svg>
