<svg width="39" height="145" viewBox="0 0 39 145" fill="none" xmlns="http://www.w3.org/2000/svg">
<circle cx="28.5" cy="10.6226" r="10" fill="#F0EAD8"/>
<circle cx="28.5" cy="10.6226" r="5" fill="white"/>
<path d="M26.4973 142.443C26.4973 143.547 27.3927 144.443 28.4973 144.443C29.6019 144.443 30.4973 143.547 30.4973 142.443L26.4973 142.443ZM30.4973 142.443C30.4973 140.718 30.3418 139.015 30.0574 137.329L26.1132 137.995C26.3637 139.48 26.4973 140.96 26.4973 142.443L30.4973 142.443ZM27.1502 127.713C25.9165 124.77 24.4206 121.84 22.8093 118.907L19.3037 120.833C20.881 123.704 22.3036 126.498 23.4614 129.259L27.1502 127.713ZM18.0198 110.521C16.441 107.789 14.8654 105.026 13.3781 102.193L9.83653 104.052C11.3636 106.961 12.9732 109.783 14.5564 112.523L18.0198 110.521ZM9.36414 93.6761C8.19183 90.8109 7.19032 87.8715 6.43831 84.835L2.55561 85.7966C3.36195 89.0524 4.4293 92.178 5.66204 95.1908L9.36414 93.6761ZM5.02705 75.7185C4.84957 72.7601 4.94234 69.695 5.36951 66.5059L1.40491 65.9749C0.942708 69.4255 0.841701 72.7489 1.03423 75.958L5.02705 75.7185ZM7.41464 57.4791C8.2972 54.6998 9.4399 51.8224 10.88 48.8384L7.27755 47.0999C5.75979 50.2448 4.54539 53.2984 3.60225 56.2684L7.41464 57.4791ZM15.4219 40.6698C17.0064 38.1452 18.7992 35.549 20.8189 32.8773L17.628 30.4652C15.5435 33.2227 13.6841 35.9141 12.0339 38.5434L15.4219 40.6698ZM26.7591 25.567C27.7856 24.3842 28.8552 23.1875 29.9692 21.9767L27.0254 19.2684C25.8862 20.5068 24.7908 21.7323 23.7381 22.9452L26.7591 25.567Z" fill="#F0EAD8"/>
</svg>
