<svg width="80" height="80" viewBox="0 0 80 80" fill="none" xmlns="http://www.w3.org/2000/svg">
<circle cx="40" cy="40" r="40" fill="#506849"/>
<g clip-path="url(#clip0_0_1)">
<path d="M46 26H34C31.8783 26 29.8434 26.8429 28.3431 28.3431C26.8429 29.8434 26 31.8783 26 34V46C26 48.1217 26.8429 50.1566 28.3431 51.6569C29.8434 53.1571 31.8783 54 34 54H46C48.1217 54 50.1566 53.1571 51.6569 51.6569C53.1571 50.1566 54 48.1217 54 46V34C54 31.8783 53.1571 29.8434 51.6569 28.3431C50.1566 26.8429 48.1217 26 46 26V26ZM37.29 44.22V35.78L44.71 40L37.29 44.22Z" fill="white"/>
</g>
<defs>
<clipPath id="clip0_0_1">
<rect width="28" height="28" fill="white" transform="translate(26 26)"/>
</clipPath>
</defs>
</svg>
